<svg width="448" height="450" viewBox="0 0 448 450" fill="none" xmlns="http://www.w3.org/2000/svg">
<mask id="path-1-inside-1_0_1" fill="white">
<path d="M418 225C435.673 225 450.234 210.602 447.728 193.107C442.29 155.129 427.199 118.983 403.664 88.2373C373.613 48.9786 331.467 20.7109 283.742 7.80334C236.016 -5.10427 185.368 -1.93313 139.625 16.8266C93.8825 35.5864 55.592 68.8902 30.6721 111.591C5.7522 154.291 -4.40965 204.011 1.75717 253.065C7.92399 302.119 30.0761 347.776 64.7897 382.98C99.5033 418.184 144.846 440.974 193.808 447.827C232.154 453.195 271.048 448.555 306.789 434.609C323.253 428.184 328.627 408.425 319.934 393.037L251.971 272.74C239.92 251.408 255.331 225 279.832 225H418Z"/>
</mask>
<path d="M418 225C435.673 225 450.234 210.602 447.728 193.107C442.29 155.129 427.199 118.983 403.664 88.2373C373.613 48.9786 331.467 20.7109 283.742 7.80334C236.016 -5.10427 185.368 -1.93313 139.625 16.8266C93.8825 35.5864 55.592 68.8902 30.6721 111.591C5.7522 154.291 -4.40965 204.011 1.75717 253.065C7.92399 302.119 30.0761 347.776 64.7897 382.98C99.5033 418.184 144.846 440.974 193.808 447.827C232.154 453.195 271.048 448.555 306.789 434.609C323.253 428.184 328.627 408.425 319.934 393.037L251.971 272.74C239.92 251.408 255.331 225 279.832 225H418Z" stroke="#BB66FF" stroke-width="64" mask="url(#path-1-inside-1_0_1)"/>
<g style="mix-blend-mode:overlay">
<mask id="path-2-inside-2_0_1" fill="white">
<path d="M342.413 174.028C358.624 166.99 366.301 147.886 356.182 133.396C343.923 115.84 328.199 100.832 309.863 89.3597C282.43 72.1963 250.437 63.7545 218.108 65.1485C185.778 66.5425 154.631 77.7067 128.777 97.1677C102.923 116.629 83.5776 143.472 73.2941 174.154C63.0106 204.836 62.2722 237.916 71.1764 269.026C80.0807 300.137 98.209 327.816 123.169 348.411C148.129 369.007 178.747 381.55 210.982 384.385C232.528 386.28 254.12 383.778 274.483 377.156C291.29 371.69 296.677 351.819 287.981 336.433L242.489 255.944C233.141 239.405 240.178 218.411 257.604 210.845L342.413 174.028Z"/>
</mask>
<path d="M342.413 174.028C358.624 166.99 366.301 147.886 356.182 133.396C343.923 115.84 328.199 100.832 309.863 89.3597C282.43 72.1963 250.437 63.7545 218.108 65.1485C185.778 66.5425 154.631 77.7067 128.777 97.1677C102.923 116.629 83.5776 143.472 73.2941 174.154C63.0106 204.836 62.2722 237.916 71.1764 269.026C80.0807 300.137 98.209 327.816 123.169 348.411C148.129 369.007 178.747 381.55 210.982 384.385C232.528 386.28 254.12 383.778 274.483 377.156C291.29 371.69 296.677 351.819 287.981 336.433L242.489 255.944C233.141 239.405 240.178 218.411 257.604 210.845L342.413 174.028Z" stroke="#3CEAC7" stroke-width="64" mask="url(#path-2-inside-2_0_1)"/>
</g>
</svg>
